<?xml version="1.0" standalone="no"?>
<!DOCTYPE svg PUBLIC "-//W3C//DTD SVG 20010904//EN"
 "http://www.w3.org/TR/2001/REC-SVG-20010904/DTD/svg10.dtd">
<svg version="1.0" xmlns="http://www.w3.org/2000/svg"
 width="2000.000000pt" height="2000.000000pt" viewBox="0 0 2000.000000 2000.000000"
 preserveAspectRatio="xMidYMid meet">

<g transform="translate(0.000000,2000.000000) scale(0.100000,-0.100000)"
fill="#000000" stroke="none">
<path d="M11145 17640 c-626 -63 -1343 -346 -1857 -733 -533 -401 -1152 -1184
-1536 -1945 -236 -467 -310 -668 -707 -1937 -346 -1106 -430 -1362 -715 -2190
-362 -1049 -740 -2081 -867 -2365 -35 -80 -138 -287 -227 -460 -90 -173 -208
-400 -261 -505 -353 -687 -730 -1242 -1190 -1755 -139 -154 -220 -260 -267
-347 -153 -283 -149 -678 9 -824 45 -43 167 -117 276 -169 186 -88 341 -113
585 -91 285 25 525 84 827 202 160 63 518 244 680 345 154 96 281 162 365 190
85 29 275 26 353 -4 31 -13 63 -30 71 -37 21 -22 31 -191 17 -304 -15 -124
-36 -205 -100 -380 -99 -272 -139 -467 -148 -721 -10 -271 16 -359 139 -487
168 -173 353 -279 556 -319 216 -42 756 12 1112 111 218 61 363 120 751 308
l157 75 5 -236 c7 -332 40 -470 132 -550 137 -121 510 -185 789 -136 112 19
275 73 379 125 189 95 615 346 782 460 186 126 380 297 488 428 l36 44 104
-47 c162 -72 275 -98 432 -98 382 -2 773 156 1090 440 241 215 682 751 928
1127 258 394 465 810 839 1685 241 563 291 696 609 1625 105 308 226 663 270
789 84 247 123 397 224 864 35 166 86 384 111 484 137 535 180 793 205 1233
39 671 -73 1541 -297 2303 -155 528 -438 1208 -661 1585 -432 733 -1052 1291
-1908 1719 -436 219 -828 327 -1595 442 -129 19 -280 40 -335 46 -136 15 -540
21 -650 10z m810 -175 c640 -81 877 -134 1302 -291 585 -217 940 -446 1624
-1045 344 -302 541 -589 822 -1199 437 -948 663 -1810 727 -2768 15 -232 13
-678 -5 -850 -55 -525 -269 -1479 -496 -2205 -63 -200 -423 -1263 -536 -1582
-188 -528 -526 -1337 -734 -1755 -451 -906 -916 -1558 -1395 -1957 -313 -261
-558 -367 -879 -380 -168 -7 -268 6 -345 45 -93 47 -120 112 -83 204 37 94
281 494 422 690 117 165 111 152 65 143 -69 -12 -141 -54 -191 -109 -79 -87
-342 -479 -479 -714 -102 -175 -252 -346 -428 -488 -45 -36 -157 -117 -251
-179 -622 -412 -903 -517 -1341 -503 -178 6 -234 25 -314 107 -44 45 -60 70
-79 126 -22 64 -24 94 -32 372 -7 268 -10 308 -28 347 l-19 45 -179 -80 c-98
-44 -272 -127 -388 -184 -351 -174 -560 -232 -1090 -301 -227 -30 -318 -28
-455 7 -240 61 -404 177 -493 346 -56 107 -71 177 -71 333 1 169 28 295 121
560 82 232 100 293 118 405 45 275 -25 567 -200 830 l-46 70 5 -45 c3 -25 8
-81 11 -125 4 -44 8 -87 11 -95 3 -13 -17 -15 -144 -15 -259 -1 -383 -48 -791
-303 -303 -189 -488 -276 -755 -357 -250 -75 -617 -120 -781 -97 -95 14 -234
60 -381 126 -162 73 -199 142 -199 371 1 155 15 220 80 351 53 108 94 165 263
367 435 518 808 1028 1034 1417 283 485 419 781 803 1745 432 1085 657 1729
1055 3020 427 1383 512 1630 830 2400 73 176 168 408 212 515 160 392 302 644
551 973 236 314 670 797 843 938 145 118 359 247 674 405 441 220 834 351
1230 409 161 24 392 13 805 -40z"/>
<path d="M14787 15774 c-2 -5 31 -58 74 -119 61 -85 120 -194 263 -480 263
-527 312 -671 341 -988 7 -67 7 -69 53 -102 26 -19 50 -35 55 -35 10 0 9 152
-4 250 -39 321 -136 578 -421 1124 -137 262 -160 297 -217 325 -43 22 -136 38
-144 25z"/>
<path d="M14829 15324 l-25 -16 184 -482 c102 -264 186 -483 188 -485 2 -2 19
7 39 19 24 15 34 28 31 39 -119 416 -180 600 -228 696 -25 49 -154 246 -161
245 -1 0 -13 -8 -28 -16z"/>
<path d="M14641 14950 c-1 -8 6 -44 14 -80 29 -123 43 -141 112 -139 92 2 92
4 -22 124 -57 61 -104 103 -104 95z"/>
<path d="M11395 12769 c-148 -24 -340 -174 -409 -319 -31 -64 -36 -85 -36
-145 0 -142 56 -271 165 -380 39 -39 97 -84 131 -102 244 -129 556 -52 672
166 41 76 65 181 59 249 -16 158 -216 412 -390 496 -83 40 -122 47 -192 35z"/>
<path d="M15125 12496 c-270 -44 -416 -162 -444 -361 -19 -133 25 -257 131
-371 146 -155 333 -206 479 -128 79 42 187 154 229 239 30 61 35 82 38 162 5
112 -10 206 -47 287 -73 161 -175 206 -386 172z"/>
<path d="M12835 11613 c-4 -10 -10 -77 -13 -148 -5 -151 14 -250 69 -358 38
-75 53 -95 132 -175 89 -91 163 -125 282 -130 116 -5 185 9 288 60 157 78 295
249 328 405 14 70 7 185 -16 238 l-16 40 -86 -165 c-105 -202 -173 -303 -238
-352 -128 -98 -304 -90 -425 19 -70 62 -95 110 -150 283 -34 107 -61 171 -95
225 -25 41 -48 75 -50 75 -1 0 -6 -8 -10 -17z"/>
<path d="M5895 8239 c-324 -600 -591 -1095 -593 -1100 -7 -17 71 -9 104 12 45
27 54 45 437 769 628 1191 687 1306 687 1336 0 46 -11 74 -29 74 -11 0 -195
-330 -606 -1091z"/>
<path d="M6274 8223 c-214 -377 -390 -694 -392 -703 -4 -23 23 -43 50 -37 52
14 91 68 259 362 269 471 519 922 519 934 0 20 -35 131 -41 131 -3 0 -180
-309 -395 -687z"/>
<path d="M6564 7984 c-76 -97 -139 -180 -139 -186 0 -6 12 -20 27 -31 l27 -20
54 41 c106 82 166 187 175 304 2 37 2 68 0 68 -3 0 -68 -79 -144 -176z"/>
<path d="M9495 3818 c-7 -23 -24 -161 -30 -253 -3 -49 -1 -171 5 -270 7 -99
15 -283 19 -409 l6 -229 53 42 52 41 0 545 0 545 -50 0 c-32 0 -52 -5 -55 -12z"/>
<path d="M10171 3355 c-21 -76 -14 -156 19 -221 16 -32 38 -70 49 -83 l19 -25
12 59 c7 33 10 81 7 108 -7 53 -42 138 -74 177 l-21 24 -11 -39z"/>
<path d="M9761 3289 c-39 -105 -38 -235 4 -326 30 -66 34 -64 59 33 29 110 19
201 -28 279 l-25 40 -10 -26z"/>
</g>
</svg>
